<mxfile host="app.diagrams.net" modified="2023-06-01T08:02:08.959Z" agent="Mozilla/5.0 (X11; Linux x86_64) AppleWebKit/537.36 (KHTML, like Gecko) Chrome/111.0.0.0 Safari/537.36" version="21.2.9" etag="kcc3MbNnYGJ75QCFQsc_" type="github">
  <diagram name="第 1 页" id="JbUYStQAycKv5sy9kM7G">
    <mxGraphModel>
      <root>
        <mxCell id="0" />
        <mxCell id="1" parent="0" />
      </root>
    </mxGraphModel>
  </diagram>
</mxfile>
